<mxfile host="app.diagrams.net" agent="Mozilla/5.0 (X11; Ubuntu; Linux x86_64; rv:128.0) Gecko/20100101 Firefox/128.0" version="24.7.6">
  <diagram name="Page-1" id="9KtswiF1WxbNuCBvQSI7">
    <mxGraphModel dx="827" dy="519" grid="1" gridSize="10" guides="1" tooltips="1" connect="1" arrows="1" fold="1" page="1" pageScale="1" pageWidth="75" pageHeight="85" math="1" shadow="0">
      <root>
        <mxCell id="0" />
        <mxCell id="1" parent="0" />
        <mxCell id="A6JmzJu9t_XA9SC4_fQP-3" value="" style="shape=mxgraph.cisco.people.androgenous_person;html=1;pointerEvents=1;dashed=0;fillColor=#000000;strokeColor=#ffffff;strokeWidth=2;verticalLabelPosition=bottom;verticalAlign=top;align=center;outlineConnect=0;shadow=1;" parent="1" vertex="1">
          <mxGeometry x="3" y="80" width="69" height="82" as="geometry" />
        </mxCell>
        <mxCell id="A6JmzJu9t_XA9SC4_fQP-7" value="$$X_L$$" style="strokeWidth=2;html=1;shape=mxgraph.flowchart.database;whiteSpace=wrap;fillColor=#C4C6C8;shadow=1;" parent="1" vertex="1">
          <mxGeometry x="-90" y="-5" width="35" height="60" as="geometry" />
        </mxCell>
        <mxCell id="A6JmzJu9t_XA9SC4_fQP-8" value="$$X_U$$" style="strokeWidth=2;html=1;shape=mxgraph.flowchart.database;whiteSpace=wrap;fillColor=#C4C6C8;shadow=1;" parent="1" vertex="1">
          <mxGeometry x="120" y="-15" width="71" height="70" as="geometry" />
        </mxCell>
        <mxCell id="rGaQ3ymLJITeFsd21-_t-46" value="" style="curved=1;endArrow=classic;html=1;rounded=0;strokeWidth=2;" edge="1" parent="1">
          <mxGeometry width="50" height="50" relative="1" as="geometry">
            <mxPoint x="-75" y="-30" as="sourcePoint" />
            <mxPoint x="-25" y="-80" as="targetPoint" />
            <Array as="points">
              <mxPoint x="-75" y="-80" />
            </Array>
          </mxGeometry>
        </mxCell>
        <mxCell id="rGaQ3ymLJITeFsd21-_t-49" value="" style="curved=1;endArrow=classic;html=1;rounded=0;strokeWidth=2;" edge="1" parent="1">
          <mxGeometry width="50" height="50" relative="1" as="geometry">
            <mxPoint x="156" y="80" as="sourcePoint" />
            <mxPoint x="106" y="130" as="targetPoint" />
            <Array as="points">
              <mxPoint x="156" y="130" />
            </Array>
          </mxGeometry>
        </mxCell>
        <mxCell id="rGaQ3ymLJITeFsd21-_t-50" value="" style="curved=1;endArrow=classic;html=1;rounded=0;strokeWidth=2;" edge="1" parent="1">
          <mxGeometry width="50" height="50" relative="1" as="geometry">
            <mxPoint x="-25" y="130" as="sourcePoint" />
            <mxPoint x="-75" y="80" as="targetPoint" />
            <Array as="points">
              <mxPoint x="-75" y="130" />
            </Array>
          </mxGeometry>
        </mxCell>
        <mxCell id="rGaQ3ymLJITeFsd21-_t-51" value="" style="curved=1;endArrow=classic;html=1;rounded=0;strokeWidth=2;" edge="1" parent="1">
          <mxGeometry width="50" height="50" relative="1" as="geometry">
            <mxPoint x="105" y="-80" as="sourcePoint" />
            <mxPoint x="155" y="-30" as="targetPoint" />
            <Array as="points">
              <mxPoint x="155" y="-80" />
            </Array>
          </mxGeometry>
        </mxCell>
        <mxCell id="rGaQ3ymLJITeFsd21-_t-53" value="&lt;font style=&quot;font-size: 12px;&quot;&gt;$$\text{Seleccionar}$$&lt;/font&gt;" style="text;html=1;align=center;verticalAlign=middle;whiteSpace=wrap;rounded=0;" vertex="1" parent="1">
          <mxGeometry x="158" y="110" width="60" height="30" as="geometry" />
        </mxCell>
        <mxCell id="rGaQ3ymLJITeFsd21-_t-54" value="&lt;font style=&quot;font-size: 12px;&quot;&gt;$$\text{instancias}$$&lt;/font&gt;" style="text;html=1;align=center;verticalAlign=middle;whiteSpace=wrap;rounded=0;" vertex="1" parent="1">
          <mxGeometry x="158" y="124" width="60" height="30" as="geometry" />
        </mxCell>
        <mxCell id="rGaQ3ymLJITeFsd21-_t-55" value="&lt;font style=&quot;font-size: 12px;&quot;&gt;$$\text{modelo}$$&lt;/font&gt;" style="text;html=1;align=center;verticalAlign=middle;whiteSpace=wrap;rounded=0;" vertex="1" parent="1">
          <mxGeometry x="-135" y="-88" width="60" height="30" as="geometry" />
        </mxCell>
        <mxCell id="rGaQ3ymLJITeFsd21-_t-57" value="&lt;font style=&quot;font-size: 12px;&quot;&gt;$$\text{re-entrenar}$$&lt;/font&gt;" style="text;html=1;align=center;verticalAlign=middle;whiteSpace=wrap;rounded=0;" vertex="1" parent="1">
          <mxGeometry x="-135" y="-100" width="60" height="30" as="geometry" />
        </mxCell>
        <mxCell id="rGaQ3ymLJITeFsd21-_t-61" value="&lt;font style=&quot;font-size: 12px;&quot;&gt;$$\text{Experto/anotador}$$&lt;/font&gt;" style="text;html=1;align=center;verticalAlign=middle;whiteSpace=wrap;rounded=0;" vertex="1" parent="1">
          <mxGeometry x="12" y="162" width="60" height="30" as="geometry" />
        </mxCell>
        <mxCell id="rGaQ3ymLJITeFsd21-_t-62" value="&lt;font style=&quot;font-size: 12px;&quot;&gt;$$\text{Datos etiquetados}$$&lt;/font&gt;" style="text;html=1;align=center;verticalAlign=middle;whiteSpace=wrap;rounded=0;" vertex="1" parent="1">
          <mxGeometry x="-98" y="55" width="60" height="30" as="geometry" />
        </mxCell>
        <mxCell id="rGaQ3ymLJITeFsd21-_t-63" value="&lt;font style=&quot;font-size: 12px;&quot;&gt;$$\text{Datos no etiquetados}$$&lt;/font&gt;" style="text;html=1;align=center;verticalAlign=middle;whiteSpace=wrap;rounded=0;" vertex="1" parent="1">
          <mxGeometry x="128" y="55" width="60" height="30" as="geometry" />
        </mxCell>
        <mxCell id="rGaQ3ymLJITeFsd21-_t-86" value="" style="group" vertex="1" connectable="0" parent="1">
          <mxGeometry x="-31" y="-120" width="140" height="85" as="geometry" />
        </mxCell>
        <mxCell id="rGaQ3ymLJITeFsd21-_t-64" value="" style="verticalLabelPosition=bottom;verticalAlign=top;html=1;shape=mxgraph.basic.polygon;polyCoords=[[0.25,0],[0.58,0],[1,0],[0.9,0.4],[0.75,1],[0.25,1],[0,1],[0,0]];polyline=0;fillColor=#dae8fc;strokeColor=#6c8ebf;" vertex="1" parent="rGaQ3ymLJITeFsd21-_t-86">
          <mxGeometry x="15.072507552870093" width="76.13293051359516" height="80" as="geometry" />
        </mxCell>
        <mxCell id="rGaQ3ymLJITeFsd21-_t-65" value="" style="verticalLabelPosition=bottom;verticalAlign=top;html=1;shape=mxgraph.basic.polygon;polyCoords=[[0.25,0],[0.75,0],[1,0],[1,1],[0.75,1],[0.25,1],[0,1],[0.12,0.5]];polyline=0;fillColor=#f8cecc;strokeColor=#b85450;" vertex="1" parent="rGaQ3ymLJITeFsd21-_t-86">
          <mxGeometry x="61.59818731117824" width="63.444108761329296" height="80" as="geometry" />
        </mxCell>
        <mxCell id="rGaQ3ymLJITeFsd21-_t-66" value="&lt;font color=&quot;#3333ff&quot;&gt;$$1$$&lt;/font&gt;" style="text;html=1;align=center;verticalAlign=middle;resizable=0;points=[];autosize=1;strokeColor=none;fillColor=none;" vertex="1" parent="rGaQ3ymLJITeFsd21-_t-86">
          <mxGeometry x="6.613293051359516" y="8" width="60" height="30" as="geometry" />
        </mxCell>
        <mxCell id="rGaQ3ymLJITeFsd21-_t-67" value="&lt;font color=&quot;#ff3333&quot;&gt;$$2$$&lt;/font&gt;" style="text;html=1;align=center;verticalAlign=middle;resizable=0;points=[];autosize=1;strokeColor=none;fillColor=none;" vertex="1" parent="rGaQ3ymLJITeFsd21-_t-86">
          <mxGeometry x="61.59818731117824" y="8" width="60" height="30" as="geometry" />
        </mxCell>
        <mxCell id="rGaQ3ymLJITeFsd21-_t-68" value="&lt;font color=&quot;#3333ff&quot;&gt;$$1$$&lt;/font&gt;" style="text;html=1;align=center;verticalAlign=middle;resizable=0;points=[];autosize=1;strokeColor=none;fillColor=none;" vertex="1" parent="rGaQ3ymLJITeFsd21-_t-86">
          <mxGeometry x="19.302114803625376" width="60" height="30" as="geometry" />
        </mxCell>
        <mxCell id="rGaQ3ymLJITeFsd21-_t-69" value="&lt;font color=&quot;#3333ff&quot;&gt;$$1$$&lt;/font&gt;" style="text;html=1;align=center;verticalAlign=middle;resizable=0;points=[];autosize=1;strokeColor=none;fillColor=none;" vertex="1" parent="rGaQ3ymLJITeFsd21-_t-86">
          <mxGeometry x="34.528700906344405" y="8" width="60" height="30" as="geometry" />
        </mxCell>
        <mxCell id="rGaQ3ymLJITeFsd21-_t-70" value="&lt;font color=&quot;#3333ff&quot;&gt;$$1$$&lt;/font&gt;" style="text;html=1;align=center;verticalAlign=middle;resizable=0;points=[];autosize=1;strokeColor=none;fillColor=none;" vertex="1" parent="rGaQ3ymLJITeFsd21-_t-86">
          <mxGeometry x="26.069486404833835" y="25" width="60" height="30" as="geometry" />
        </mxCell>
        <mxCell id="rGaQ3ymLJITeFsd21-_t-71" value="&lt;font color=&quot;#3333ff&quot;&gt;$$1$$&lt;/font&gt;" style="text;html=1;align=center;verticalAlign=middle;resizable=0;points=[];autosize=1;strokeColor=none;fillColor=none;" vertex="1" parent="rGaQ3ymLJITeFsd21-_t-86">
          <mxGeometry x="15.072507552870093" y="30" width="60" height="30" as="geometry" />
        </mxCell>
        <mxCell id="rGaQ3ymLJITeFsd21-_t-72" value="&lt;font color=&quot;#3333ff&quot;&gt;$$1$$&lt;/font&gt;" style="text;html=1;align=center;verticalAlign=middle;resizable=0;points=[];autosize=1;strokeColor=none;fillColor=none;" vertex="1" parent="rGaQ3ymLJITeFsd21-_t-86">
          <mxGeometry x="27.76132930513595" y="50" width="60" height="30" as="geometry" />
        </mxCell>
        <mxCell id="rGaQ3ymLJITeFsd21-_t-73" value="&lt;font color=&quot;#3333ff&quot;&gt;$$1$$&lt;/font&gt;" style="text;html=1;align=center;verticalAlign=middle;resizable=0;points=[];autosize=1;strokeColor=none;fillColor=none;" vertex="1" parent="rGaQ3ymLJITeFsd21-_t-86">
          <mxGeometry x="15.072507552870093" y="55" width="60" height="30" as="geometry" />
        </mxCell>
        <mxCell id="rGaQ3ymLJITeFsd21-_t-74" value="&lt;font color=&quot;#3333ff&quot;&gt;$$1$$&lt;/font&gt;" style="text;html=1;align=center;verticalAlign=middle;resizable=0;points=[];autosize=1;strokeColor=none;fillColor=none;" vertex="1" parent="rGaQ3ymLJITeFsd21-_t-86">
          <mxGeometry y="50" width="60" height="30" as="geometry" />
        </mxCell>
        <mxCell id="rGaQ3ymLJITeFsd21-_t-75" value="&lt;font color=&quot;#3333ff&quot;&gt;$$1$$&lt;/font&gt;" style="text;html=1;align=center;verticalAlign=middle;resizable=0;points=[];autosize=1;strokeColor=none;fillColor=none;" vertex="1" parent="rGaQ3ymLJITeFsd21-_t-86">
          <mxGeometry y="30" width="60" height="30" as="geometry" />
        </mxCell>
        <mxCell id="rGaQ3ymLJITeFsd21-_t-76" value="&lt;font color=&quot;#ff3333&quot;&gt;$$2$$&lt;/font&gt;" style="text;html=1;align=center;verticalAlign=middle;resizable=0;points=[];autosize=1;strokeColor=none;fillColor=none;" vertex="1" parent="rGaQ3ymLJITeFsd21-_t-86">
          <mxGeometry x="86.28398791540785" y="8" width="60" height="30" as="geometry" />
        </mxCell>
        <mxCell id="rGaQ3ymLJITeFsd21-_t-77" value="&lt;font color=&quot;#ff3333&quot;&gt;$$2$$&lt;/font&gt;" style="text;html=1;align=center;verticalAlign=middle;resizable=0;points=[];autosize=1;strokeColor=none;fillColor=none;" vertex="1" parent="rGaQ3ymLJITeFsd21-_t-86">
          <mxGeometry x="74.2870090634441" y="25" width="60" height="30" as="geometry" />
        </mxCell>
        <mxCell id="rGaQ3ymLJITeFsd21-_t-78" value="&lt;font color=&quot;#ff3333&quot;&gt;$$2$$&lt;/font&gt;" style="text;html=1;align=center;verticalAlign=middle;resizable=0;points=[];autosize=1;strokeColor=none;fillColor=none;" vertex="1" parent="rGaQ3ymLJITeFsd21-_t-86">
          <mxGeometry x="50.6012084592145" y="25" width="60" height="30" as="geometry" />
        </mxCell>
        <mxCell id="rGaQ3ymLJITeFsd21-_t-79" value="&lt;font color=&quot;#ff3333&quot;&gt;$$2$$&lt;/font&gt;" style="text;html=1;align=center;verticalAlign=middle;resizable=0;points=[];autosize=1;strokeColor=none;fillColor=none;" vertex="1" parent="rGaQ3ymLJITeFsd21-_t-86">
          <mxGeometry x="64.13595166163142" y="38" width="60" height="30" as="geometry" />
        </mxCell>
        <mxCell id="rGaQ3ymLJITeFsd21-_t-80" value="&lt;font color=&quot;#ff3333&quot;&gt;$$2$$&lt;/font&gt;" style="text;html=1;align=center;verticalAlign=middle;resizable=0;points=[];autosize=1;strokeColor=none;fillColor=none;" vertex="1" parent="rGaQ3ymLJITeFsd21-_t-86">
          <mxGeometry x="89.24471299093655" y="38" width="60" height="30" as="geometry" />
        </mxCell>
        <mxCell id="rGaQ3ymLJITeFsd21-_t-81" value="&lt;font color=&quot;#ff3333&quot;&gt;$$2$$&lt;/font&gt;" style="text;html=1;align=center;verticalAlign=middle;resizable=0;points=[];autosize=1;strokeColor=none;fillColor=none;" vertex="1" parent="rGaQ3ymLJITeFsd21-_t-86">
          <mxGeometry x="78.5166163141994" y="55" width="60" height="30" as="geometry" />
        </mxCell>
        <mxCell id="rGaQ3ymLJITeFsd21-_t-82" value="&lt;font color=&quot;#ff3333&quot;&gt;$$2$$&lt;/font&gt;" style="text;html=1;align=center;verticalAlign=middle;resizable=0;points=[];autosize=1;strokeColor=none;fillColor=none;" vertex="1" parent="rGaQ3ymLJITeFsd21-_t-86">
          <mxGeometry x="50.6012084592145" y="55" width="60" height="30" as="geometry" />
        </mxCell>
        <mxCell id="rGaQ3ymLJITeFsd21-_t-85" value="" style="endArrow=none;html=1;rounded=0;entryX=0.816;entryY=0.005;entryDx=0;entryDy=0;entryPerimeter=0;exitX=0.133;exitY=0.833;exitDx=0;exitDy=0;exitPerimeter=0;" edge="1" parent="rGaQ3ymLJITeFsd21-_t-86" target="rGaQ3ymLJITeFsd21-_t-64">
          <mxGeometry width="50" height="50" relative="1" as="geometry">
            <mxPoint x="61.58126888217524" y="79.98999999999998" as="sourcePoint" />
            <mxPoint x="76.86706948640483" as="targetPoint" />
          </mxGeometry>
        </mxCell>
      </root>
    </mxGraphModel>
  </diagram>
</mxfile>
